<svg xmlns="http://www.w3.org/2000/svg" xmlns:xlink="http://www.w3.org/1999/xlink" width="500" zoomAndPan="magnify" viewBox="0 0 375 374.999991" height="500" preserveAspectRatio="xMidYMid meet" version="1.0"><defs><g/></defs><g fill="#ffffff" fill-opacity="1"><g transform="translate(188.894148, 226.158558)"><g><path d="M 8.515625 0 L 8.515625 -80.5625 L 45.21875 -80.5625 C 51.738281 -80.5625 57.359375 -79.390625 62.078125 -77.046875 C 66.796875 -74.703125 70.441406 -71.378906 73.015625 -67.078125 C 75.585938 -62.785156 76.875 -57.648438 76.875 -51.671875 C 76.875 -46.066406 75.722656 -41.171875 73.421875 -36.984375 C 71.117188 -32.804688 67.816406 -29.53125 63.515625 -27.15625 L 78.375 0 L 52.015625 0 L 40.5 -22.90625 L 31.765625 -22.90625 L 31.765625 0 Z M 31.296875 -41.421875 L 42.125 -41.421875 C 45.800781 -41.421875 48.617188 -42.300781 50.578125 -44.0625 C 52.535156 -45.832031 53.515625 -48.332031 53.515625 -51.5625 C 53.515625 -54.78125 52.535156 -57.25 50.578125 -58.96875 C 48.617188 -60.695312 45.800781 -61.5625 42.125 -61.5625 L 31.296875 -61.5625 Z M 31.296875 -41.421875 "/></g></g></g><g fill="#ffffff" fill-opacity="1"><g transform="translate(99.178812, 227.059643)"><g><path d="M 29.921875 0 L 29.921875 -27.96875 L 0.578125 -80.5625 L 26.703125 -80.5625 L 35.21875 -63.875 L 41.421875 -51.671875 L 56.046875 -80.5625 L 82.390625 -80.5625 L 53.046875 -28.078125 L 53.046875 0 Z M 29.921875 0 "/></g></g></g><g fill="#ffffff" fill-opacity="1"><g transform="translate(356.665483, 235.966711)"><g><path d="M 1.71875 -47.75 C 1.71875 -41.3125 0.703125 -35.425781 -1.328125 -30.09375 C -3.359375 -24.757812 -6.253906 -20.132812 -10.015625 -16.21875 C -13.773438 -12.3125 -18.222656 -9.28125 -23.359375 -7.125 C -28.503906 -4.976562 -34.144531 -3.90625 -40.28125 -3.90625 C -46.414062 -3.90625 -52.050781 -4.976562 -57.1875 -7.125 C -62.332031 -9.28125 -66.785156 -12.3125 -70.546875 -16.21875 C -74.304688 -20.132812 -77.203125 -24.757812 -79.234375 -30.09375 C -81.265625 -35.425781 -82.28125 -41.3125 -82.28125 -47.75 C -82.28125 -54.195312 -81.265625 -60.085938 -79.234375 -65.421875 C -77.203125 -70.753906 -74.304688 -75.375 -70.546875 -79.28125 C -66.785156 -83.195312 -62.332031 -86.226562 -57.1875 -88.375 C -52.050781 -90.53125 -46.414062 -91.609375 -40.28125 -91.609375 C -34.144531 -91.609375 -28.503906 -90.53125 -23.359375 -88.375 C -18.222656 -86.226562 -13.773438 -83.195312 -10.015625 -79.28125 C -6.253906 -75.375 -3.359375 -70.753906 -1.328125 -65.421875 C 0.703125 -60.085938 1.71875 -54.195312 1.71875 -47.75 Z M -40.28125 -27.5 C -36.289062 -27.5 -32.738281 -28.363281 -29.625 -30.09375 C -26.519531 -31.820312 -24.101562 -34.21875 -22.375 -37.28125 C -20.65625 -40.351562 -19.796875 -43.84375 -19.796875 -47.75 C -19.796875 -51.738281 -20.65625 -55.25 -22.375 -58.28125 C -24.101562 -61.3125 -26.519531 -63.691406 -29.625 -65.421875 C -32.738281 -67.148438 -36.289062 -68.015625 -40.28125 -68.015625 C -44.34375 -68.015625 -47.90625 -67.148438 -50.96875 -65.421875 C -54.039062 -63.691406 -56.441406 -61.3125 -58.171875 -58.28125 C -59.898438 -55.25 -60.765625 -51.738281 -60.765625 -47.75 C -60.765625 -43.84375 -59.898438 -40.351562 -58.171875 -37.28125 C -56.441406 -34.21875 -54.039062 -31.820312 -50.96875 -30.09375 C -47.90625 -28.363281 -44.34375 -27.5 -40.28125 -27.5 Z M -40.28125 -27.5 "/></g></g></g><path stroke-linecap="butt" transform="matrix(-0.75, 0, 0, -0.75, 101.053299, 202.794831)" fill="none" stroke-linejoin="miter" d="M -0.00185178 8.502484 L 51.904402 8.502484 " stroke="#ea7100" stroke-width="17" stroke-opacity="1" stroke-miterlimit="4"/><g fill="#ea7100" fill-opacity="1"><g transform="translate(9.000004, 226.969387)"><g><path d="M 46.578125 1.609375 C 38.453125 1.609375 31.242188 -0.171875 24.953125 -3.734375 C 18.671875 -7.296875 13.765625 -12.21875 10.234375 -18.5 C 6.703125 -24.789062 4.9375 -32.039062 4.9375 -40.25 C 4.9375 -48.457031 6.703125 -55.703125 10.234375 -61.984375 C 13.765625 -68.273438 18.648438 -73.203125 24.890625 -76.765625 C 31.140625 -80.328125 38.328125 -82.109375 46.453125 -82.109375 C 53.273438 -82.109375 59.523438 -80.804688 65.203125 -78.203125 C 70.878906 -75.597656 75.648438 -71.914062 79.515625 -67.15625 C 83.390625 -62.40625 86.09375 -56.8125 87.625 -50.375 L 68.765625 -50.375 C 67.234375 -54.820312 64.507812 -58.328125 60.59375 -60.890625 C 56.6875 -63.460938 52.164062 -64.75 47.03125 -64.75 C 42.507812 -64.75 38.46875 -63.710938 34.90625 -61.640625 C 31.34375 -59.566406 28.5625 -56.691406 26.5625 -53.015625 C 24.570312 -49.335938 23.578125 -45.082031 23.578125 -40.25 C 23.578125 -35.414062 24.570312 -31.160156 26.5625 -27.484375 C 28.5625 -23.804688 31.320312 -20.929688 34.84375 -18.859375 C 38.375 -16.785156 42.398438 -15.75 46.921875 -15.75 C 52.210938 -15.75 56.847656 -17.109375 60.828125 -19.828125 C 64.816406 -22.554688 67.65625 -26.21875 69.34375 -30.8125 L 88.203125 -30.8125 C 86.898438 -24.300781 84.289062 -18.609375 80.375 -13.734375 C 76.46875 -8.867188 71.617188 -5.09375 65.828125 -2.40625 C 60.046875 0.269531 53.628906 1.609375 46.578125 1.609375 Z M 46.578125 1.609375 "/></g></g></g><path stroke-linecap="butt" transform="matrix(0, 0.75, -0.75, 0, 101.052427, 191.546207)" fill="none" stroke-linejoin="miter" d="M 0.000890104 8.502196 L 47.818602 8.502196 " stroke="#ea7100" stroke-width="17" stroke-opacity="1" stroke-miterlimit="4"/></svg>