<svg width="236" height="38" viewBox="0 0 236 38" fill="none" xmlns="http://www.w3.org/2000/svg">
<path id="Line 42" d="M3.3418 16.5022C1.96108 16.5022 0.841797 17.6215 0.841797 19.0022C0.841797 20.3829 1.96108 21.5022 3.3418 21.5022L3.3418 16.5022ZM234.768 20.77C235.744 19.7937 235.744 18.2107 234.768 17.2344L218.858 1.32453C217.882 0.348217 216.299 0.348217 215.323 1.32453C214.346 2.30084 214.346 3.88375 215.323 4.86006L229.465 19.0022L215.323 33.1443C214.346 34.1206 214.346 35.7036 215.323 36.6799C216.299 37.6562 217.882 37.6562 218.858 36.6799L234.768 20.77ZM3.3418 21.5022L233 21.5022V16.5022L3.3418 16.5022L3.3418 21.5022Z" fill="#EA7100"/>
</svg>
