<svg width="25" height="25" viewBox="0 0 25 25" fill="none" xmlns="http://www.w3.org/2000/svg">
<mask id="mask0_2184_5008" style="mask-type:alpha" maskUnits="userSpaceOnUse" x="0" y="0" width="25" height="25">
<path d="M18.3157 7.98193L18.3535 8.05723H24.1314L24.0937 7.86898L23.9804 7.49247L23.9048 7.26657L23.716 6.85241L23.565 6.55121L23.3384 6.1747L23.1118 5.79819L22.8852 5.42169L22.5831 5.04518L22.3565 4.74398L22.1299 4.44277L21.8656 4.14157L21.6012 3.84036L21.3369 3.57681L21.0347 3.31325L20.6949 3.01205L20.3172 2.67319L20.0151 2.44729L19.6375 2.18374L19.2976 1.95783L19.0332 1.76958L18.5423 1.46837L17.9758 1.20482L17.4094 0.978916L16.7674 0.715361L16.352 0.564759L15.8988 0.451807L15.5211 0.338855L15.1435 0.225904L14.7281 0.150602L14.1994 0.0753012L13.7085 0H11.2915L11.0272 0.0376506L10.5363 0.112952L10.2341 0.150602L9.89426 0.225904L9.59214 0.301205L9.29003 0.376506L8.91239 0.489458L8.53474 0.60241L8.23263 0.715361L7.93051 0.828313L7.59063 0.941265L7.28852 1.09187L6.94864 1.24247L6.571 1.43072L6.19335 1.65663L5.81571 1.88253L5.43807 2.10843L5.09819 2.33434L4.72054 2.63554L4.49396 2.78614L3.96526 3.31325L3.51208 3.68976L3.2855 3.99096L2.98338 4.29217L2.68127 4.66867L2.45468 4.96988L2.15257 5.42169L1.85045 5.87349L1.54834 6.4006L1.24622 6.92771L1.01964 7.45482L0.793051 8.01958L0.60423 8.47139L0.453172 9.03615L0.302115 9.63855L0.188822 10.1657L0.0755287 10.7304L0 11.2199V13.4789L0.0377644 13.8554L0.113293 14.3449L0.188822 14.9096L0.339879 15.4367L0.490937 16.0392L0.717523 16.6416L0.86858 17.0934L1.01964 17.3946L1.24622 17.9217L1.47281 18.3735L1.73716 18.863L2.03927 19.3524L2.30363 19.6536L2.60574 20.1054L2.90786 20.4819L3.17221 20.7831L3.47432 21.0843L3.77644 21.3855L4.04079 21.6114L4.3429 21.9127L4.56949 22.1386L4.94713 22.3645L5.32477 22.6657L5.85347 23.0422L6.38218 23.3434L6.83535 23.5693L7.28852 23.7952L7.74169 24.0211L8.19486 24.1717L8.64804 24.3223L9.10121 24.4729L9.70544 24.6235L10.3097 24.7364L10.8384 24.8117L11.4048 24.9247H12.1979H12.9532H13.4819L14.0106 24.8494L14.577 24.7364L15.2568 24.6235L15.861 24.4729L16.5786 24.247L16.994 24.0587L17.4471 23.8705L17.9381 23.6446L18.2779 23.4563L18.7311 23.2304L19.3353 22.8163L19.6752 22.5904L20.0906 22.2892L20.355 22.0633L20.8082 21.6867L21.1858 21.4608V25H25V13.253H12.8776V17.0934H17.8248H18.2024L18.1269 17.3569L17.2583 18.1099L16.8807 18.3358L16.4653 18.637L16.0121 18.9383L15.6344 19.1642L15.219 19.3148L14.9169 19.4654L14.3882 19.616L14.0106 19.6913H13.8595H11.2915L10.7251 19.616L10.3474 19.4654L9.78097 19.3148L9.2145 19.1265L8.6858 18.863L8.1571 18.5241L7.77946 18.2229L7.59063 17.997L7.32628 17.6958L7.06193 17.4699L6.83535 17.1687L6.60876 16.8675L6.38218 16.491L6.08006 16.0392L5.85347 15.5873L5.70242 15.2108L5.55136 14.8343L5.4003 14.4578L5.32477 14.0813L5.24924 13.7048L5.21148 13.4789V13.253V11.5211V11.2199L5.28701 10.994L5.36254 10.6928L5.4003 10.5422L5.47583 10.3916L5.55136 10.1657L5.58912 9.93976L5.62689 9.78916L5.74018 9.6009L5.81571 9.4503L5.929 9.2244L6.00453 9.03615L6.11783 8.84789L6.19335 8.69729L6.26888 8.54669L6.41994 8.32078L6.53323 8.13253L6.68429 7.94428L6.79758 7.79367L6.94864 7.60542L7.17523 7.41717L7.40181 7.19127L7.6284 7.00301L7.77946 6.85241L8.00604 6.66416L8.23263 6.51355L8.42145 6.36295L8.61027 6.25L8.76133 6.1747L8.91239 6.0994L9.06344 6.0241L9.2145 5.9488L9.36556 5.87349L9.51662 5.79819L9.66767 5.72289L9.81873 5.64759L10.0076 5.57229L10.1586 5.49699L10.3474 5.45934L10.6495 5.38404L10.8384 5.27108L11.1405 5.23343L11.5181 5.19578L11.7825 5.15813H13.2175L13.7462 5.23343L14.0483 5.30874L14.3505 5.38404L14.6526 5.45934L14.8792 5.53464L15.1057 5.60994L15.3323 5.68524L15.4834 5.76054L15.6344 5.83584L15.7855 5.91114L15.9366 5.98645L16.0876 6.06175L16.2387 6.13705L16.3897 6.21235L16.503 6.28765L16.5786 6.36295L16.6541 6.4006L16.7296 6.4759L16.8051 6.55121L16.9184 6.62651L17.0317 6.70181L17.145 6.77711L17.2205 6.85241L17.2961 6.92771L17.3716 7.00301L17.4471 7.07831L17.5227 7.15361L17.5982 7.22892L17.6737 7.30422L17.7115 7.37952L17.8625 7.53012L18.0136 7.68072L18.1647 7.83133L18.2402 7.90663L18.3157 7.98193Z" fill="#D9D9D9"/>
</mask>
<g mask="url(#mask0_2184_5008)">
<rect x="-4.94629" y="-5.64746" width="37.7644" height="37.6506" fill="#EA7100"/>
</g>
</svg>
